<?xml version="1.0" encoding="utf-8"?><!-- Uploaded to: SVG Repo, www.svgrepo.com, Generator: SVG Repo Mixer Tools -->
<svg width="800px" height="800px" viewBox="0 0 24 24" fill="none" xmlns="http://www.w3.org/2000/svg">
<g id="style=fill">
<g id="heart">
<path id="Subtract" fill-rule="evenodd" clip-rule="evenodd" d="M7.56 2.3501C4.07229 2.3501 1.25 5.18939 1.25 8.6901C1.25 12.4396 2.98932 15.4002 5.06577 17.5277C7.13169 19.6444 9.57655 20.9862 11.1343 21.5187C11.4086 21.6148 11.7227 21.6501 12 21.6501C12.2773 21.6501 12.5914 21.6148 12.8657 21.5187C14.4235 20.9862 16.8683 19.6444 18.9342 17.5277C21.0107 15.4002 22.75 12.4396 22.75 8.6901C22.75 5.18939 19.9277 2.3501 16.44 2.3501C14.7122 2.3501 13.1385 3.05574 12.0003 4.19481C10.8646 3.05608 9.29674 2.3501 7.56 2.3501ZM20.2156 11.1952C20.3396 10.8 20.1197 10.3791 19.7245 10.2551C19.3293 10.1311 18.9084 10.3509 18.7844 10.7461C18.0447 13.1036 16.5095 15.0083 14.8443 16.4296C14.5292 16.6985 14.4918 17.1719 14.7607 17.487C15.0297 17.802 15.503 17.8394 15.8181 17.5705C17.6284 16.0254 19.3678 13.8971 20.2156 11.1952Z" fill="#000000"/>
</g>
</g>
</svg>